<mxfile host="app.diagrams.net" modified="2023-07-05T09:14:53.236Z" agent="Mozilla/5.0 (X11; Linux x86_64; rv:109.0) Gecko/20100101 Firefox/114.0" version="21.5.2" etag="QNHrw9xX3kyF_L6KBMl9" type="github">
  <diagram name="Pagina-1" id="4APzqsNUmOsOdhUILB_i">
    <mxGraphModel>
      <root>
        <mxCell id="0" />
        <mxCell id="1" parent="0" />
      </root>
    </mxGraphModel>
  </diagram>
</mxfile>
